<svg xmlns="http://www.w3.org/2000/svg" xmlns:xlink="http://www.w3.org/1999/xlink" width="150" zoomAndPan="magnify" viewBox="0 0 112.5 74.999997" height="100" preserveAspectRatio="xMidYMid meet" version="1.0"><defs><g/><clipPath id="252eec50a2"><path d="M 51 57 L 63.878906 57 L 63.878906 61 L 51 61 Z M 51 57 " clip-rule="nonzero"/></clipPath><clipPath id="6c286959ef"><path d="M 1.210938 13 L 36 13 L 36 57 L 1.210938 57 Z M 1.210938 13 " clip-rule="nonzero"/></clipPath><clipPath id="8d6a8e1856"><path d="M 38 64 L 57 64 L 57 67.421875 L 38 67.421875 Z M 38 64 " clip-rule="nonzero"/></clipPath></defs><g clip-path="url(#252eec50a2)"><path fill="#0c134f" d="M 51.964844 57.226562 C 51.800781 57.226562 51.492188 57.285156 51.214844 57.355469 C 51.382812 57.457031 51.554688 57.542969 51.652344 57.574219 C 51.679688 57.570312 51.707031 57.570312 51.734375 57.570312 C 51.933594 57.570312 52.113281 57.683594 52.21875 57.878906 C 52.246094 57.890625 52.273438 57.902344 52.304688 57.910156 C 52.796875 58.097656 53.375 58.125 53.878906 58.039062 C 54.382812 57.953125 54.816406 57.796875 55.144531 57.839844 C 55.308594 57.859375 55.460938 57.921875 55.617188 58.027344 C 55.769531 58.128906 55.914062 58.277344 56.054688 58.433594 C 56.121094 58.515625 56.191406 58.597656 56.253906 58.6875 L 56.351562 58.820312 L 56.441406 58.957031 L 56.640625 59.25 L 56.746094 59.402344 C 56.78125 59.453125 56.820312 59.5 56.859375 59.550781 L 56.976562 59.699219 L 57.109375 59.835938 C 57.191406 59.933594 57.289062 60.015625 57.386719 60.101562 C 57.433594 60.144531 57.484375 60.183594 57.535156 60.222656 C 57.589844 60.257812 57.640625 60.296875 57.695312 60.335938 C 57.808594 60.398438 57.917969 60.472656 58.039062 60.523438 C 58.511719 60.753906 59.046875 60.820312 59.539062 60.785156 C 60.039062 60.757812 60.503906 60.644531 60.960938 60.53125 C 61.1875 60.476562 61.410156 60.421875 61.632812 60.371094 C 61.746094 60.347656 61.855469 60.320312 61.964844 60.300781 C 62.078125 60.28125 62.1875 60.257812 62.296875 60.246094 C 62.519531 60.21875 62.738281 60.207031 62.953125 60.230469 C 63.171875 60.25 63.382812 60.304688 63.585938 60.394531 C 63.679688 60.441406 63.773438 60.464844 63.816406 60.449219 C 63.875 60.425781 63.816406 60.324219 63.683594 60.222656 C 63.480469 60.085938 63.246094 59.992188 63.003906 59.933594 C 62.761719 59.875 62.511719 59.863281 62.269531 59.871094 C 62.144531 59.871094 62.027344 59.886719 61.90625 59.894531 C 61.785156 59.910156 61.667969 59.925781 61.550781 59.945312 C 61.316406 59.980469 61.085938 60.03125 60.859375 60.074219 C 60.402344 60.160156 59.957031 60.242188 59.519531 60.242188 C 59.085938 60.25 58.671875 60.171875 58.3125 59.976562 C 57.949219 59.792969 57.652344 59.484375 57.398438 59.140625 C 57.367188 59.097656 57.335938 59.058594 57.304688 59.011719 L 57.21875 58.875 L 57.039062 58.578125 L 56.945312 58.425781 L 56.839844 58.273438 C 56.773438 58.167969 56.695312 58.070312 56.617188 57.96875 C 56.457031 57.773438 56.28125 57.578125 56.054688 57.414062 C 55.832031 57.246094 55.546875 57.117188 55.246094 57.074219 C 54.949219 57.027344 54.671875 57.070312 54.425781 57.113281 C 54.183594 57.15625 53.964844 57.210938 53.757812 57.238281 C 53.34375 57.296875 52.960938 57.273438 52.582031 57.128906 C 52.527344 57.109375 52.476562 57.085938 52.425781 57.0625 C 52.308594 57.167969 52.148438 57.226562 51.964844 57.226562 Z M 51.964844 57.226562 " fill-opacity="1" fill-rule="nonzero"/></g><g clip-path="url(#6c286959ef)"><path fill="#0c134f" d="M 34.535156 34.910156 C 34.945312 34.871094 35.320312 34.65625 35.558594 34.320312 C 35.796875 33.984375 35.878906 33.5625 35.78125 33.164062 C 34.964844 29.820312 33.707031 27.308594 32.742188 25.726562 C 32.589844 25.335938 32.410156 24.988281 32.207031 24.679688 C 32.226562 24.570312 32.246094 24.460938 32.269531 24.351562 C 32.351562 24.355469 32.425781 24.355469 32.492188 24.355469 C 32.601562 24.355469 32.679688 24.351562 32.714844 24.339844 L 32.925781 24.269531 L 32.910156 24.058594 C 32.890625 23.828125 32.6875 23.796875 32.375 23.746094 C 31.679688 23.640625 31.609375 21.664062 31.550781 19.917969 C 31.476562 17.785156 31.398438 15.578125 30.460938 14.492188 C 28.816406 12.589844 26.898438 13.183594 26.402344 13.382812 C 25.90625 13.183594 23.988281 12.589844 22.34375 14.492188 C 21.40625 15.578125 21.328125 17.785156 21.253906 19.917969 C 21.238281 20.390625 21.222656 20.882812 21.191406 21.347656 C 15.214844 24.144531 1.214844 46.558594 1.214844 46.558594 C 1.214844 46.558594 6.980469 45.675781 13.285156 52.515625 C 15.390625 54.804688 17.980469 55.488281 20.496094 55.382812 C 20.859375 55.878906 21.429688 56.222656 22.09375 56.277344 C 23.167969 56.363281 24.121094 55.664062 24.390625 54.664062 C 25.125 54.433594 25.820312 54.164062 26.460938 53.890625 C 27.042969 53.882812 27.660156 53.867188 28.308594 53.835938 L 28.34375 54.273438 C 28.441406 55.480469 29.503906 56.375 30.710938 56.277344 C 31.921875 56.179688 32.820312 55.121094 32.722656 53.917969 L 32.6875 53.472656 C 32.957031 53.441406 33.230469 53.40625 33.511719 53.371094 L 33.75 53.339844 L 33.742188 53.101562 C 33.644531 49.914062 33.304688 40.875 32.460938 36.9375 C 32.539062 36.308594 32.617188 35.6875 32.6875 35.082031 Z M 33.203125 52.875 C 27.382812 53.625 23.101562 53.347656 21.039062 53.105469 C 27.640625 51.363281 30.242188 42.964844 31.078125 39.25 C 31.085938 39.21875 31.503906 37.320312 31.628906 35.878906 C 31.835938 36.390625 32.164062 37.675781 32.496094 40.929688 C 32.8125 44.03125 33.054688 48.15625 33.203125 52.875 Z M 26.28125 13.90625 L 26.402344 13.96875 L 26.523438 13.90625 C 26.542969 13.898438 28.433594 12.960938 30.054688 14.839844 C 30.875 15.785156 30.949219 17.992188 31.015625 19.9375 C 31.074219 21.554688 31.125 23.011719 31.578125 23.757812 C 31.292969 23.726562 30.96875 23.683594 30.625 23.625 C 30.675781 22.953125 30.640625 21.703125 30.121094 19.75 C 30.300781 19.300781 30.398438 18.808594 30.398438 18.296875 C 30.398438 16.09375 22.40625 16.09375 22.40625 18.296875 C 22.40625 18.808594 22.503906 19.300781 22.679688 19.75 C 22.164062 21.703125 22.128906 22.953125 22.179688 23.625 C 21.835938 23.683594 21.511719 23.726562 21.226562 23.757812 C 21.679688 23.011719 21.730469 21.554688 21.785156 19.9375 C 21.855469 17.992188 21.929688 15.785156 22.746094 14.839844 C 24.363281 12.96875 26.203125 13.867188 26.28125 13.90625 Z M 20.550781 40.929688 C 21.015625 36.367188 21.476562 35.671875 21.601562 35.566406 C 22.582031 35.765625 29.4375 35.515625 31.136719 34.90625 C 31.203125 36.214844 30.425781 42.332031 27.417969 47.214844 C 25.390625 50.507812 22.847656 52.386719 19.851562 52.804688 C 19.996094 48.117188 20.238281 44.015625 20.550781 40.929688 Z M 22.65625 24.070312 C 22.597656 23.824219 22.394531 22.667969 22.960938 20.320312 C 23.339844 20.960938 23.894531 21.488281 24.5625 21.832031 C 24.597656 21.421875 24.722656 20.753906 25.164062 20.292969 C 25.480469 19.960938 25.898438 19.792969 26.402344 19.792969 C 26.90625 19.792969 27.324219 19.960938 27.640625 20.292969 C 28.082031 20.753906 28.207031 21.421875 28.242188 21.832031 C 28.90625 21.488281 29.464844 20.960938 29.84375 20.320312 C 30.402344 22.65625 30.203125 23.824219 30.148438 24.074219 C 29.78125 24.375 27.492188 26.269531 26.402344 26.734375 C 25.3125 26.269531 23.019531 24.375 22.65625 24.070312 Z M 22.257812 24.160156 C 22.269531 24.210938 22.277344 24.242188 22.28125 24.25 L 22.300781 24.304688 L 22.34375 24.34375 C 22.425781 24.410156 23.792969 25.5625 25.011719 26.386719 L 26.144531 30.382812 C 26.179688 30.5 26.28125 30.578125 26.402344 30.578125 C 26.519531 30.578125 26.625 30.5 26.660156 30.382812 L 27.792969 26.386719 C 29.011719 25.5625 30.378906 24.410156 30.460938 24.34375 L 30.503906 24.304688 L 30.523438 24.25 C 30.527344 24.242188 30.535156 24.210938 30.546875 24.160156 C 30.984375 24.230469 31.390625 24.28125 31.734375 24.3125 C 30.949219 28.488281 30.703125 31.539062 30.9375 34.421875 C 29.710938 34.867188 23.058594 35.25 21.804688 35.0625 C 22.132812 31.984375 21.914062 28.796875 21.070312 24.3125 C 21.414062 24.28125 21.820312 24.230469 22.257812 24.160156 Z M 21.371094 30.644531 C 21.222656 31.003906 21.082031 31.382812 20.941406 31.78125 L 21.414062 31.824219 C 21.417969 32.003906 21.417969 32.183594 21.417969 32.359375 L 20.226562 32.246094 C 20.554688 31.214844 20.917969 30.292969 21.285156 29.488281 C 21.320312 29.882812 21.347656 30.265625 21.371094 30.644531 Z M 16.8125 34.628906 C 16.480469 34.167969 16.371094 33.585938 16.503906 33.035156 C 17.558594 28.726562 19.339844 25.757812 20.324219 24.355469 C 20.386719 24.355469 20.457031 24.351562 20.535156 24.347656 C 20.566406 24.515625 20.601562 24.683594 20.628906 24.847656 C 19.652344 26.277344 18.011719 29.109375 17.023438 33.164062 C 16.925781 33.5625 17.007812 33.984375 17.246094 34.320312 C 17.484375 34.652344 17.859375 34.867188 18.269531 34.90625 L 21.230469 35.1875 C 21.128906 35.292969 21.03125 35.464844 20.941406 35.695312 L 18.21875 35.4375 C 17.652344 35.382812 17.140625 35.089844 16.8125 34.628906 Z M 16.8125 34.628906 " fill-opacity="1" fill-rule="nonzero"/></g><path fill="#0c134f" d="M 26.402344 22.28125 C 26.800781 22.28125 27.183594 22.222656 27.542969 22.113281 C 27.542969 21.914062 27.515625 21.1875 27.125 20.777344 C 26.945312 20.589844 26.707031 20.5 26.402344 20.5 C 26.097656 20.5 25.859375 20.589844 25.679688 20.777344 C 25.289062 21.1875 25.257812 21.914062 25.257812 22.113281 C 25.621094 22.222656 26.003906 22.28125 26.402344 22.28125 Z M 26.402344 22.28125 " fill-opacity="1" fill-rule="nonzero"/><path fill="#0c134f" d="M 26.28125 14.789062 L 26.402344 14.894531 L 26.519531 14.789062 C 26.53125 14.777344 27.5625 13.882812 29.464844 15.242188 L 29.671875 14.957031 C 27.890625 13.683594 26.757812 14.203125 26.402344 14.4375 C 26.046875 14.203125 24.914062 13.679688 23.132812 14.957031 L 23.339844 15.242188 C 25.226562 13.890625 26.242188 14.75 26.28125 14.789062 Z M 26.28125 14.789062 " fill-opacity="1" fill-rule="nonzero"/><path fill="#0c134f" d="M 22.207031 36.898438 L 21.855469 36.847656 C 21.84375 36.921875 20.742188 44.59375 20.566406 51.347656 L 20.921875 51.355469 C 21.097656 44.625 22.195312 36.972656 22.207031 36.898438 Z M 22.207031 36.898438 " fill-opacity="1" fill-rule="nonzero"/><path fill="#0c134f" d="M 20.8125 64.144531 C 21.03125 64.070312 21.253906 64.003906 21.460938 63.914062 L 21.78125 63.785156 L 22.089844 63.640625 C 22.300781 63.550781 22.5 63.4375 22.699219 63.332031 L 23.261719 63.03125 C 23.988281 62.652344 24.757812 62.371094 25.554688 62.203125 C 27.144531 61.851562 28.8125 61.980469 30.511719 62.199219 C 32.210938 62.410156 33.972656 62.675781 35.773438 62.675781 C 36.671875 62.675781 37.574219 62.613281 38.464844 62.480469 C 39.359375 62.347656 40.246094 62.132812 41.09375 61.875 C 41.519531 61.746094 41.945312 61.605469 42.378906 61.4375 L 42.703125 61.296875 C 42.808594 61.25 42.921875 61.191406 43.03125 61.136719 C 43.140625 61.082031 43.261719 61.003906 43.375 60.933594 C 43.496094 60.839844 43.613281 60.761719 43.746094 60.609375 C 43.808594 60.550781 43.878906 60.433594 43.929688 60.332031 C 43.960938 60.285156 43.980469 60.207031 44 60.140625 C 44.015625 60.070312 44.03125 60.003906 44.03125 59.933594 C 44.03125 59.867188 44.027344 59.785156 44.019531 59.730469 L 44.003906 59.679688 C 43.996094 59.648438 43.984375 59.628906 43.96875 59.605469 C 43.941406 59.558594 43.910156 59.515625 43.890625 59.464844 C 43.871094 59.414062 43.867188 59.351562 43.894531 59.308594 C 43.949219 59.214844 44.046875 59.160156 44.136719 59.105469 C 44.1875 59.078125 44.226562 59.058594 44.292969 59.027344 L 44.523438 58.9375 C 45.289062 58.664062 46.429688 58.722656 47.257812 58.515625 C 48.058594 58.3125 49.234375 58.421875 50.097656 58.273438 C 50.628906 58.292969 51.832031 58.292969 51.882812 58.296875 C 51.9375 58.300781 51.882812 57.917969 51.6875 57.984375 C 51.496094 58.054688 50.324219 57.328125 50.398438 57.21875 C 50.472656 57.105469 51.570312 56.8125 51.960938 56.820312 C 52.347656 56.824219 52.238281 56.375 52.152344 56.273438 C 52.070312 56.167969 51.070312 56.164062 50.789062 56.082031 C 50.570312 56.015625 50.128906 55.898438 49.683594 56.054688 C 48.816406 56.253906 47.84375 56.636719 47.035156 56.777344 C 46.167969 56.9375 45.121094 57.304688 44.238281 57.570312 L 43.546875 57.796875 C 43.414062 57.847656 43.238281 58.027344 43.09375 58.089844 C 42.828125 58.246094 42.796875 58.464844 42.648438 58.734375 C 42.628906 58.765625 42.605469 58.796875 42.59375 58.832031 L 42.5625 58.941406 C 42.546875 59.015625 42.535156 59.089844 42.539062 59.15625 C 42.546875 59.296875 42.570312 59.429688 42.621094 59.578125 C 42.640625 59.652344 42.671875 59.738281 42.707031 59.808594 L 42.714844 59.820312 C 42.695312 59.832031 42.675781 59.847656 42.65625 59.859375 C 42.582031 59.898438 42.519531 59.941406 42.433594 59.980469 C 42.347656 60.019531 42.269531 60.058594 42.175781 60.09375 L 41.898438 60.203125 C 41.515625 60.339844 41.117188 60.464844 40.710938 60.578125 C 39.894531 60.8125 39.09375 60.996094 38.265625 61.109375 C 37.441406 61.226562 36.609375 61.277344 35.773438 61.277344 C 34.09375 61.285156 32.410156 61.050781 30.667969 60.859375 C 29.796875 60.765625 28.90625 60.691406 28 60.699219 C 27.09375 60.699219 26.171875 60.796875 25.273438 61.019531 C 24.378906 61.238281 23.515625 61.59375 22.722656 62.042969 L 22.148438 62.378906 C 21.972656 62.480469 21.796875 62.589844 21.609375 62.679688 L 21.335938 62.820312 L 21.058594 62.949219 C 20.871094 63.035156 20.679688 63.101562 20.492188 63.175781 C 19.726562 63.449219 18.925781 63.589844 18.117188 63.558594 C 17.710938 63.546875 17.304688 63.496094 16.902344 63.410156 C 16.496094 63.328125 16.09375 63.210938 15.691406 63.078125 C 15.289062 62.945312 14.890625 62.792969 14.480469 62.644531 C 14.277344 62.566406 14.070312 62.496094 13.863281 62.425781 C 13.652344 62.355469 13.445312 62.285156 13.230469 62.222656 C 12.800781 62.101562 12.363281 62 11.914062 61.945312 C 11.46875 61.894531 11.011719 61.882812 10.566406 61.949219 C 10.351562 61.980469 10.183594 62.054688 10.148438 62.121094 C 10.101562 62.214844 10.300781 62.273438 10.585938 62.273438 C 11.007812 62.277344 11.421875 62.335938 11.828125 62.4375 C 12.234375 62.53125 12.632812 62.667969 13.027344 62.820312 C 13.222656 62.898438 13.421875 62.976562 13.617188 63.0625 L 14.210938 63.316406 C 14.609375 63.488281 15.011719 63.65625 15.425781 63.816406 C 15.839844 63.972656 16.265625 64.121094 16.707031 64.234375 C 17.148438 64.347656 17.601562 64.425781 18.0625 64.464844 C 18.988281 64.542969 19.933594 64.417969 20.8125 64.144531 Z M 49.960938 56.425781 C 49.988281 56.289062 50.484375 56.378906 50.457031 56.515625 C 50.433594 56.652344 50.300781 56.742188 50.164062 56.71875 C 50.027344 56.691406 49.933594 56.5625 49.960938 56.425781 Z M 43 59.882812 C 43.023438 59.882812 43.015625 59.882812 43 59.882812 Z M 43 59.882812 " fill-opacity="1" fill-rule="nonzero"/><g clip-path="url(#8d6a8e1856)"><path fill="#0c134f" d="M 54.957031 65.851562 C 54.730469 65.9375 54.523438 65.984375 54.347656 66.027344 L 54.285156 66.039062 C 54.261719 66.046875 54.25 66.046875 54.203125 66.058594 L 53.914062 66.136719 L 53.753906 66.183594 L 53.597656 66.21875 C 53.492188 66.246094 53.390625 66.273438 53.285156 66.289062 C 52.867188 66.375 52.449219 66.425781 52.03125 66.421875 C 51.613281 66.421875 51.199219 66.375 50.789062 66.273438 C 50.378906 66.179688 49.972656 66.035156 49.539062 65.894531 C 49.109375 65.75 48.640625 65.617188 48.144531 65.585938 C 47.894531 65.570312 47.644531 65.585938 47.398438 65.625 C 47.152344 65.667969 46.914062 65.734375 46.6875 65.820312 C 46.574219 65.859375 46.464844 65.914062 46.355469 65.960938 C 46.25 66.011719 46.140625 66.066406 46.039062 66.121094 L 45.734375 66.296875 C 45.644531 66.351562 45.554688 66.40625 45.460938 66.457031 C 45.089844 66.652344 44.703125 66.800781 44.304688 66.835938 C 43.90625 66.882812 43.507812 66.796875 43.101562 66.65625 C 42.695312 66.515625 42.277344 66.320312 41.820312 66.203125 C 41.589844 66.144531 41.351562 66.101562 41.113281 66.097656 C 41.050781 66.09375 40.992188 66.097656 40.933594 66.101562 C 40.871094 66.101562 40.8125 66.101562 40.753906 66.113281 L 40.574219 66.136719 C 40.519531 66.148438 40.460938 66.160156 40.402344 66.171875 C 40.34375 66.183594 40.289062 66.199219 40.230469 66.214844 C 40.175781 66.234375 40.117188 66.25 40.0625 66.269531 C 39.957031 66.3125 39.84375 66.347656 39.742188 66.398438 C 39.636719 66.449219 39.53125 66.496094 39.433594 66.554688 C 39.332031 66.613281 39.234375 66.667969 39.140625 66.734375 C 39.050781 66.792969 38.984375 66.859375 38.980469 66.902344 C 38.980469 66.957031 39.089844 66.949219 39.226562 66.890625 C 39.324219 66.839844 39.429688 66.804688 39.53125 66.761719 C 39.632812 66.71875 39.734375 66.6875 39.839844 66.652344 C 39.941406 66.617188 40.046875 66.597656 40.152344 66.566406 C 40.203125 66.554688 40.253906 66.546875 40.308594 66.535156 C 40.359375 66.523438 40.410156 66.515625 40.464844 66.507812 C 40.519531 66.503906 40.570312 66.496094 40.621094 66.492188 L 40.777344 66.484375 C 40.832031 66.480469 40.882812 66.480469 40.933594 66.484375 C 40.988281 66.484375 41.039062 66.484375 41.089844 66.492188 C 41.296875 66.507812 41.5 66.550781 41.703125 66.613281 C 42.105469 66.738281 42.496094 66.941406 42.925781 67.117188 C 43.355469 67.292969 43.847656 67.425781 44.34375 67.390625 C 44.59375 67.378906 44.839844 67.335938 45.070312 67.261719 C 45.304688 67.199219 45.523438 67.101562 45.742188 67 C 45.847656 66.949219 45.949219 66.890625 46.054688 66.835938 L 46.335938 66.6875 C 46.433594 66.640625 46.527344 66.597656 46.621094 66.550781 C 46.71875 66.515625 46.816406 66.472656 46.914062 66.441406 C 47.105469 66.375 47.304688 66.332031 47.5 66.300781 C 47.699219 66.277344 47.894531 66.269531 48.09375 66.285156 C 48.488281 66.320312 48.886719 66.441406 49.304688 66.589844 C 49.71875 66.734375 50.152344 66.894531 50.613281 67.007812 C 51.070312 67.121094 51.550781 67.183594 52.03125 67.1875 C 52.507812 67.1875 52.980469 67.128906 53.441406 67.027344 C 53.554688 67.007812 53.667969 66.976562 53.78125 66.949219 L 53.953125 66.902344 L 54.113281 66.859375 L 54.472656 66.753906 L 54.714844 66.683594 L 54.976562 66.605469 C 55.148438 66.550781 55.324219 66.5 55.480469 66.4375 C 55.558594 66.410156 55.640625 66.378906 55.710938 66.347656 C 55.78125 66.316406 55.855469 66.285156 55.914062 66.253906 C 56.039062 66.1875 56.132812 66.121094 56.210938 66.058594 C 56.289062 65.992188 56.355469 65.929688 56.410156 65.867188 C 56.464844 65.800781 56.519531 65.742188 56.546875 65.640625 C 56.566406 65.589844 56.550781 65.511719 56.519531 65.46875 C 56.492188 65.421875 56.453125 65.390625 56.417969 65.359375 C 56.265625 65.242188 56.078125 65.160156 55.824219 65.085938 C 55.695312 65.046875 55.550781 65.019531 55.402344 64.996094 C 55.25 64.96875 55.09375 64.949219 54.9375 64.929688 L 54.464844 64.875 C 54.296875 64.859375 54.183594 64.847656 54.074219 64.839844 C 53.738281 64.816406 53.398438 64.792969 53.0625 64.769531 C 53.046875 64.757812 53.035156 64.742188 53.019531 64.730469 C 52.652344 64.488281 51.867188 64.085938 51.128906 64.480469 C 50.25 64.949219 52.472656 65.363281 53.066406 65.242188 C 53.382812 65.292969 53.695312 65.34375 54.011719 65.390625 C 54.125 65.40625 54.234375 65.425781 54.285156 65.433594 L 54.472656 65.472656 C 54.589844 65.5 54.699219 65.523438 54.800781 65.550781 C 54.898438 65.578125 54.996094 65.601562 55.074219 65.644531 C 55.09375 65.65625 55.113281 65.671875 55.128906 65.6875 C 55.144531 65.707031 55.144531 65.742188 55.121094 65.761719 C 55.074219 65.804688 55.015625 65.828125 54.957031 65.851562 Z M 51.761719 64.671875 C 51.683594 64.65625 51.636719 64.585938 51.652344 64.511719 C 51.667969 64.4375 51.9375 64.488281 51.921875 64.5625 C 51.90625 64.636719 51.835938 64.6875 51.761719 64.671875 Z M 51.761719 64.671875 " fill-opacity="1" fill-rule="nonzero"/></g><path fill="#0c134f" d="M 54.371094 46.75 L 53.640625 46.402344 L 52.191406 54.617188 L 52.539062 54.765625 Z M 54.371094 46.75 " fill-opacity="1" fill-rule="nonzero"/><path fill="#0c134f" d="M 59.4375 49.828125 L 58.996094 49.152344 L 53.492188 55.4375 L 53.710938 55.742188 Z M 59.4375 49.828125 " fill-opacity="1" fill-rule="nonzero"/><path fill="#0c134f" d="M 50.585938 54.488281 L 48.585938 46.511719 L 47.777344 46.53125 L 50.210938 54.511719 Z M 50.585938 54.488281 " fill-opacity="1" fill-rule="nonzero"/><g fill="#0c134f" fill-opacity="1"><g transform="translate(37.266898, 42.602788)"><g><path d="M 6.171875 -7.816406 C 7.203125 -7.917969 7.988281 -9.335938 8.476562 -10.515625 C 9.03125 -7.65625 9.207031 -6.101562 9.628906 -3.230469 C 9.660156 -3.117188 9.675781 -2.980469 9.6875 -2.867188 C 9.792969 -2.019531 9.871094 -1.21875 11.222656 -1.351562 C 12.046875 -1.433594 12.5 -1.984375 12.441406 -2.601562 C 12.078125 -6.292969 11.566406 -9.894531 10.722656 -13.535156 C 10.691406 -13.625 10.683594 -13.714844 10.648438 -13.828125 C 10.472656 -14.691406 10.1875 -16.1875 8.972656 -16.070312 C 7.738281 -15.949219 7.09375 -14.011719 6.621094 -12.464844 C 6.296875 -11.507812 6.027344 -10.71875 6.050781 -10.71875 C 5.9375 -10.707031 5.410156 -11.605469 4.796875 -12.65625 C 3.910156 -14.164062 2.878906 -15.960938 1.550781 -15.828125 C 1.023438 -15.777344 0.863281 -15.554688 0.675781 -15.304688 C 0.167969 -14.605469 0.699219 -8.925781 0.867188 -7.230469 L 0.898438 -6.910156 L 1.4375 -1.597656 C 1.527344 -0.703125 1.730469 -0.261719 2.96875 -0.382812 C 4.089844 -0.492188 4.242188 -1.316406 4.171875 -2.050781 C 4.03125 -3.46875 3.890625 -4.890625 3.777344 -6.289062 C 3.679688 -7.527344 3.585938 -8.722656 3.464844 -9.957031 C 4.128906 -8.84375 5.050781 -7.707031 6.171875 -7.816406 Z M 6.171875 -7.816406 "/></g></g></g><g fill="#0c134f" fill-opacity="1"><g transform="translate(51.289492, 41.244349)"><g><path d="M 8.21875 -3.101562 C 8.320312 -1.285156 8.222656 1.140625 6.152344 1.253906 C 5.210938 1.304688 4.320312 0.59375 3.625 0.101562 C 3.214844 -0.222656 2.878906 -0.480469 2.441406 -0.457031 C 1.773438 -0.421875 1.085938 0.0546875 1.117188 0.628906 C 1.222656 2.539062 4.394531 3.609375 6.046875 3.515625 C 10.527344 3.273438 11.132812 -0.378906 10.945312 -3.828125 C 10.890625 -4.839844 10.765625 -5.824219 10.644531 -6.804688 C 10.511719 -7.929688 10.382812 -9.074219 10.320312 -10.199219 L 10.332031 -10.386719 C 10.273438 -11.441406 9.984375 -12.09375 8.765625 -12.027344 C 7.410156 -11.953125 7.476562 -10.78125 7.519531 -10 C 7.527344 -9.863281 7.535156 -9.679688 7.546875 -9.496094 C 7.582031 -9.242188 7.597656 -8.96875 7.613281 -8.667969 C 7.703125 -7.082031 7.65625 -4.960938 6.414062 -4.890625 C 4.875 -4.808594 4.632812 -6.292969 4.554688 -7.742188 C 4.53125 -8.175781 4.53125 -8.59375 4.507812 -9.027344 C 4.503906 -9.464844 4.503906 -9.902344 4.480469 -10.339844 C 4.433594 -11.191406 4.363281 -12.039062 2.984375 -11.964844 C 1.722656 -11.894531 1.554688 -11.609375 1.609375 -10.597656 C 1.628906 -10.230469 1.671875 -9.839844 1.695312 -9.425781 C 1.738281 -9.0625 1.761719 -8.671875 1.78125 -8.28125 C 1.949219 -5.246094 2.539062 -2.445312 6.515625 -2.660156 C 7.226562 -2.699219 7.722656 -2.890625 8.21875 -3.101562 Z M 8.21875 -3.101562 "/></g></g></g><g fill="#0c134f" fill-opacity="1"><g transform="translate(63.750574, 40.54306)"><g><path d="M 9.230469 -9 C 8.128906 -8.871094 7.070312 -8.765625 6.011719 -8.753906 L 4.261719 -8.730469 C 4.285156 -8.730469 4.285156 -8.753906 4.285156 -8.914062 L 4.222656 -13.726562 C 4.210938 -14.714844 4.132812 -15.3125 2.707031 -15.292969 C 1.464844 -15.277344 1.414062 -13.894531 1.421875 -13.207031 C 1.4375 -11.988281 1.476562 -10.789062 1.511719 -9.59375 C 1.558594 -7.730469 1.605469 -5.867188 1.628906 -4.003906 C 1.640625 -3.128906 1.675781 -2.230469 1.847656 -1.335938 C 1.949219 -0.625 2.320312 -0.238281 3.289062 -0.25 C 4.507812 -0.265625 4.597656 -0.519531 4.585938 -1.414062 C 4.574219 -2.152344 4.519531 -2.84375 4.464844 -3.554688 C 4.410156 -4.269531 4.355469 -4.980469 4.347656 -5.671875 L 4.335938 -6.523438 L 9.539062 -6.589844 L 9.605469 -1.15625 C 9.617188 -0.398438 9.921875 0.0820312 10.980469 0.0664062 C 11.96875 0.0546875 12.308594 -0.339844 12.300781 -1.097656 C 12.277344 -2.941406 12.160156 -4.757812 12.070312 -6.597656 C 11.925781 -8.804688 11.875 -10.96875 11.847656 -13.175781 C 11.832031 -14.351562 11.628906 -15.796875 10.363281 -15.78125 C 9.375 -15.769531 9.078125 -15.441406 9.089844 -14.683594 C 9.09375 -14.222656 9.125 -13.742188 9.152344 -13.28125 C 9.183594 -12.796875 9.1875 -12.335938 9.195312 -11.855469 Z M 9.230469 -9 "/></g></g></g><g fill="#0c134f" fill-opacity="1"><g transform="translate(77.503963, 40.387994)"><g><path d="M 4.179688 -5.476562 C 5.074219 -5.292969 5.945312 -5.175781 6.84375 -5.152344 C 9.074219 -5.089844 10.472656 -5.625 10.539062 -8.132812 C 10.601562 -10.316406 8.875 -12.023438 6.507812 -12.089844 C 3.101562 -12.183594 1.488281 -8.824219 1.414062 -6.085938 C 1.328125 -3.046875 2.90625 -0.171875 6.515625 -0.0703125 C 8.058594 -0.0273438 9.429688 -0.449219 10.203125 -1.789062 C 10.324219 -2.015625 10.425781 -2.3125 10.433594 -2.5625 C 10.449219 -3.253906 10.007812 -3.820312 9.453125 -3.835938 C 8.441406 -3.863281 8.652344 -2.292969 6.878906 -2.339844 C 4.855469 -2.398438 4.203125 -3.796875 4.179688 -5.476562 Z M 4.609375 -7.605469 C 4.820312 -8.570312 5.429688 -9.816406 6.625 -9.785156 C 7.640625 -9.757812 8.332031 -9.070312 8.308594 -8.125 C 8.28125 -7.136719 7.9375 -7.238281 7.132812 -7.261719 C 6.488281 -7.277344 5.222656 -7.3125 4.609375 -7.605469 Z M 4.609375 -7.605469 "/></g></g></g><g fill="#0c134f" fill-opacity="1"><g transform="translate(88.987946, 40.721773)"><g><path d="M 4.980469 -10.875 C 4.90625 -11.503906 4.5625 -11.917969 3.804688 -11.964844 C 2.425781 -12.046875 2.238281 -11.253906 2.183594 -10.378906 C 2.054688 -8.265625 1.945312 -6.152344 2 -4.027344 C 2.015625 -3.886719 2.003906 -3.726562 2.015625 -3.542969 C 2.011719 -2.367188 2.007812 -0.382812 3.570312 -0.289062 C 4.921875 -0.203125 5.046875 -1.09375 5.097656 -1.921875 C 5.144531 -2.632812 5.136719 -3.304688 5.132812 -3.996094 C 5.128906 -4.6875 5.125 -5.355469 5.167969 -6.046875 L 5.175781 -6.136719 C 5.226562 -7.011719 5.375 -9.03125 6.179688 -8.980469 C 6.546875 -8.957031 6.875 -8.660156 7.179688 -8.367188 C 7.507812 -8.070312 7.8125 -7.773438 8.40625 -7.738281 C 9.328125 -7.679688 9.867188 -8.246094 9.910156 -8.933594 C 10.003906 -10.453125 8.472656 -11.398438 7.046875 -11.488281 C 6.242188 -11.535156 5.539062 -11.304688 4.980469 -10.875 Z M 4.980469 -10.875 "/></g></g></g><g fill="#0c134f" fill-opacity="1"><g transform="translate(98.420327, 41.261168)"><g><path d="M 6.621094 0.398438 C 10.699219 0.800781 12.480469 -1.3125 12.839844 -4.953125 C 13.148438 -8.089844 11.929688 -10.988281 8.242188 -11.351562 C 4.371094 -11.734375 2.214844 -9.332031 1.871094 -5.828125 C 1.5625 -2.691406 3.070312 0.046875 6.621094 0.398438 Z M 10.121094 -5.058594 C 9.914062 -2.976562 8.96875 -1.613281 6.886719 -1.816406 C 5.167969 -1.988281 4.4375 -3.492188 4.613281 -5.257812 C 4.832031 -7.5 5.617188 -9.367188 7.976562 -9.132812 C 10.222656 -8.910156 10.320312 -7.097656 10.121094 -5.058594 Z M 10.121094 -5.058594 "/></g></g></g></svg>